<svg version="1.1" id="Layer_1" xmlns="http://www.w3.org/2000/svg" xmlns:xlink="http://www.w3.org/1999/xlink" x="0px" y="0px"
	 width="100%" viewBox="0 0 1024 704" enable-background="new 0 0 1024 704" xml:space="preserve">
<path fill="#000000" opacity="1.000000" stroke="none" 
	d="
M412.294250,76.294708 
	C415.933533,72.600983 419.347961,69.181618 422.704102,65.705971 
	C429.406311,58.765034 437.126282,53.484703 446.337524,50.325993 
	C450.408539,48.929951 454.420074,47.117668 458.117950,44.920898 
	C470.073425,37.818600 483.714752,35.555431 496.590851,31.108095 
	C497.691589,30.727909 498.937286,30.652241 499.934387,30.104870 
	C513.558350,22.625788 528.675049,22.351870 543.565247,20.957991 
	C545.219421,20.803141 546.893616,20.600832 548.494019,20.176922 
	C557.495605,17.792604 566.624756,17.176453 575.718750,19.080053 
	C589.807312,22.029158 604.158630,22.670399 618.398132,23.481760 
	C636.444763,24.510044 654.046753,27.521711 671.620667,31.342636 
	C679.092957,32.967251 686.766418,33.650162 694.269165,35.155918 
	C700.854370,36.477520 705.498962,40.471340 710.043945,45.629879 
	C721.483398,58.613632 735.219421,68.822906 751.682922,74.890297 
	C753.399475,75.522949 755.159912,76.082268 756.943481,76.480652 
	C776.262512,80.795853 790.422241,92.976646 803.351074,106.976013 
	C808.508911,112.560944 810.793762,119.775200 812.258301,126.853653 
	C816.185120,145.832321 823.056885,163.954742 827.680969,182.707977 
	C830.814880,195.417526 832.044373,208.308990 830.312195,221.364975 
	C829.643555,226.404495 830.775513,231.332840 831.088379,236.303818 
	C831.976379,250.412048 832.320312,264.533356 834.407227,278.592987 
	C836.526733,292.872375 834.971008,307.260040 831.758423,321.278656 
	C826.948242,342.268768 828.231750,362.973877 836.052429,382.684387 
	C842.994141,400.179626 842.902771,417.785400 842.342712,435.990112 
	C841.786682,454.059753 835.605896,470.460236 830.466980,487.295746 
	C827.519531,496.951813 824.212158,506.540192 824.805115,517.021912 
	C825.144897,523.028320 822.804016,528.872253 820.194092,534.260193 
	C816.610962,541.657410 815.592163,549.476318 814.974243,557.482056 
	C814.247253,566.901978 811.288574,575.534058 804.240845,582.101624 
	C797.323303,588.547852 790.804138,595.574036 782.118774,599.838623 
	C777.204590,602.251465 774.923889,606.094849 775.695007,611.569885 
	C775.987122,613.644348 775.199890,615.076904 773.594666,616.281860 
	C764.096130,623.411377 754.204041,629.839478 742.325317,632.186340 
	C736.540283,633.329224 731.327209,636.024414 725.706665,637.568176 
	C715.368286,640.407837 704.716614,641.242004 694.139343,642.442810 
	C681.064575,643.927185 668.358643,647.782288 655.151489,648.324463 
	C645.030273,648.739929 634.889343,650.016174 624.841187,647.487427 
	C623.565735,647.166565 622.134583,646.889038 620.882874,647.135742 
	C603.992004,650.465576 588.219116,644.567688 572.179260,641.177917 
	C564.786560,639.615662 557.725464,639.465515 550.608948,642.244202 
	C541.040710,645.980042 530.894104,646.814331 520.799927,648.026184 
	C509.293884,649.407593 501.931641,642.318787 495.128204,635.185669 
	C486.634125,626.280029 477.461578,619.456177 465.224121,616.432007 
	C449.954010,612.658386 435.826447,606.112549 422.865967,596.889404 
	C415.090790,591.356384 406.225189,588.031616 396.265472,587.986877 
	C384.520050,587.934143 373.233856,584.744080 362.058014,581.479248 
	C352.729340,578.754150 343.425140,576.411560 333.585724,577.102905 
	C326.774963,577.581482 320.370026,576.149170 314.368774,572.760254 
	C310.560699,570.609863 306.328735,569.213562 302.006012,569.027710 
	C287.888885,568.420776 279.056000,559.536865 270.805420,549.663635 
	C262.434570,539.646362 261.923889,527.315247 261.064392,515.184143 
	C260.250458,503.696381 257.956146,492.420502 256.596100,481.013336 
	C256.114838,476.976624 253.899368,473.516479 251.521179,470.260559 
	C245.104065,461.475098 242.515930,451.423004 241.946869,440.773956 
	C241.648727,435.194641 240.109955,429.943237 238.354294,424.739563 
	C237.295258,421.600647 237.531418,418.705811 238.203415,415.481567 
	C241.597900,399.194336 249.198212,384.911133 258.405762,371.308014 
	C261.943024,366.082092 264.727509,360.320526 267.471191,354.731262 
	C270.264648,349.040527 268.434540,342.387695 266.138580,336.390015 
	C265.788269,335.474884 265.252625,334.522919 264.543549,333.868988 
	C253.403564,323.594543 249.102448,309.372894 242.794113,296.312683 
	C236.047256,282.344666 241.004791,263.947784 253.032791,254.439316 
	C263.436523,246.214905 274.266876,238.292923 281.966675,227.094864 
	C284.347107,223.632935 287.984131,221.335205 291.460358,219.080139 
	C302.984436,211.604355 308.259827,199.557617 314.180603,188.059265 
	C316.047577,184.433472 314.305298,180.426224 312.471802,177.061020 
	C309.624115,171.834457 309.518524,166.802475 311.546326,161.234467 
	C314.619019,152.797363 315.134827,143.596619 319.014465,135.354721 
	C323.640656,125.526955 330.332977,117.747971 340.671875,113.740623 
	C346.541443,111.465591 352.634094,109.955330 358.771118,108.418205 
	C370.820526,105.400215 382.990082,101.620277 393.191895,94.284431 
	C400.136871,89.290459 405.804291,82.519798 412.294250,76.294708 
M506.021118,345.368439 
	C506.190094,343.849213 508.048309,342.473633 506.370728,340.793915 
	C504.921387,339.342712 503.611603,340.515961 502.255646,340.952545 
	C499.740540,341.762390 497.184540,342.464355 494.717926,343.401733 
	C488.848114,345.632477 482.929138,347.771332 477.209045,350.345093 
	C473.607727,351.965515 473.301483,354.556610 475.977203,356.296478 
	C482.526215,360.554779 493.847412,358.763153 498.852386,352.742889 
	C500.949280,350.220673 502.644073,347.237396 505.992126,346.730499 
	C504.661682,350.198334 502.089966,352.879242 500.112274,355.935120 
	C499.043640,357.586395 498.532593,359.012115 499.505188,360.994690 
	C501.408630,364.874603 502.767303,369.035889 504.833954,372.817017 
	C506.410187,375.700958 506.829010,379.621735 511.213379,380.499359 
	C513.180664,380.893127 512.979065,382.721436 511.592072,383.971252 
	C510.035950,385.373444 508.019073,385.984253 506.019958,385.714355 
	C496.725739,384.459747 489.120300,388.169037 482.036041,393.563568 
	C480.997803,394.354126 480.085876,395.451202 478.078766,394.971161 
	C476.553009,391.445526 475.070099,387.579895 473.240112,383.886169 
	C469.924042,377.192657 461.665222,371.675232 456.314819,372.619263 
	C450.912872,373.572418 445.580139,374.799011 440.388245,376.720490 
	C431.034058,380.182495 421.913635,384.321350 412.012787,386.236816 
	C402.393982,388.097748 392.635315,389.637115 383.307343,392.514740 
	C365.279358,398.076263 360.175812,401.919586 361.342438,420.083893 
	C361.406372,421.079681 361.301453,422.086334 361.365784,423.082092 
	C361.843781,430.477997 364.537628,437.040771 369.608276,442.369537 
	C376.242126,449.341125 384.675751,449.151917 393.373169,442.654541 
	C396.939636,439.990265 399.691040,435.908203 404.822144,435.028961 
	C405.783112,440.048798 405.300293,444.713562 405.320465,449.340973 
	C405.363190,459.135529 405.210541,468.947113 408.303619,478.407410 
	C411.499969,488.183502 418.172791,496.089325 429.035034,494.742340 
	C432.018616,494.372345 434.912201,493.792816 437.816559,493.137878 
	C439.739960,492.704163 441.659821,492.136536 443.342346,493.230682 
	C444.443787,501.533569 444.872223,509.619659 443.240906,517.693665 
	C442.255920,522.568787 441.310516,527.462708 441.363922,532.463318 
	C441.419189,537.638062 444.537659,541.225586 448.915466,541.329041 
	C452.987854,541.425232 456.786774,537.733582 457.755463,533.407959 
	C459.003937,527.832947 460.916473,522.519836 466.700592,519.403564 
	C467.287689,522.066772 467.929718,524.135071 468.159271,526.248047 
	C468.410004,528.555969 468.240112,530.906677 468.322632,533.236267 
	C468.480225,537.684631 472.945831,541.695984 477.309509,541.355225 
	C482.251648,540.969299 485.005829,537.590759 484.705383,532.560242 
	C484.635956,531.397766 483.290649,530.169556 485.143402,528.519958 
	C490.561005,536.622620 498.533173,539.833435 507.905670,540.752136 
	C518.389038,541.779846 524.771606,535.952148 530.507141,526.670471 
	C531.575745,535.588196 535.981445,539.329468 543.024536,540.387085 
	C550.395325,541.494019 557.750549,539.265442 565.208252,540.695496 
	C569.482544,541.515198 571.397095,537.140625 573.518433,533.978271 
	C577.297119,536.390015 580.536865,539.062561 584.698425,540.038330 
	C592.170410,541.790283 598.924194,540.419800 604.676636,535.271423 
	C609.588074,530.875671 607.691833,525.634155 605.888062,520.557678 
	C610.509216,519.568848 612.341187,521.098633 613.286316,526.437439 
	C614.535889,533.495789 618.523987,538.059875 625.578552,539.748657 
	C631.999207,541.285706 638.413635,540.933594 644.855957,539.744263 
	C651.075134,538.596252 652.868713,535.967590 650.922668,530.028381 
	C650.470215,528.647339 650.220886,527.849365 651.287781,526.528137 
	C655.087891,521.822510 654.696106,512.837341 650.701416,507.201843 
	C647.939270,503.305267 643.265686,502.524902 636.115845,504.968628 
	C633.995605,505.693359 631.903076,506.390656 629.840210,505.289459 
	C623.701355,502.012268 617.942566,500.431763 613.862061,509.525848 
	C608.528992,499.181396 599.901611,499.798767 591.553223,500.416168 
	C576.947571,501.496368 570.678528,511.008453 576.915527,522.267029 
	C575.645264,523.667236 573.980103,524.825989 572.185181,524.175720 
	C569.970581,523.373291 570.733582,521.018921 570.795898,519.316650 
	C570.929016,515.679016 571.431580,512.056580 571.650696,508.419952 
	C571.959106,503.301941 568.468018,501.314819 564.327209,500.493011 
	C560.213684,499.676636 557.181396,501.716125 555.610474,505.546082 
	C554.601746,508.005188 554.560059,510.706665 554.181702,513.333191 
	C553.447693,518.428650 554.234558,524.271362 548.563049,528.479919 
	C545.865662,522.071289 545.691284,516.040344 545.663086,509.974609 
	C545.639099,504.808167 542.088196,500.849365 537.440247,500.727356 
	C532.429199,500.595825 530.051758,502.893372 529.254883,508.616913 
	C529.164673,509.264465 529.080933,509.953918 527.395996,510.358124 
	C523.906189,505.407471 517.733093,503.684021 511.332214,500.789093 
	C512.485168,500.054596 512.878601,499.761383 513.307983,499.536591 
	C528.556091,491.552277 541.074951,480.307007 551.979248,467.142090 
	C553.451782,465.364197 555.005066,465.688995 556.883362,466.432068 
	C560.419739,467.831116 563.990356,469.022491 567.785767,469.791626 
	C574.814575,471.215973 581.903931,470.191772 589.032410,470.743805 
	C589.153748,472.016113 589.303101,472.996063 589.332458,473.979645 
	C589.657410,484.853607 593.746643,490.614777 604.036499,494.496063 
	C611.623413,497.357819 619.595764,497.706238 627.563477,497.729919 
	C646.645874,497.786652 665.614685,497.997864 684.211731,491.790619 
	C705.748596,484.602112 709.415771,458.874817 696.849365,446.844757 
	C696.232056,446.253754 695.848389,445.517212 696.038269,444.604034 
	C710.836853,434.258942 705.723633,411.160828 689.213318,406.865143 
	C683.969604,405.500854 678.880554,403.393158 673.502686,402.286896 
	C665.338562,400.607452 656.603027,400.016510 652.527527,390.663391 
	C651.580811,388.490601 650.955994,387.250000 652.641357,385.005096 
	C656.244995,380.205261 660.071960,375.487335 663.034973,369.546234 
	C656.481689,371.527740 650.524902,373.328888 644.505981,375.148804 
	C644.013428,374.058563 643.760681,373.457642 643.474976,372.872925 
	C636.495056,358.588928 625.226746,353.812927 610.170593,359.098022 
	C599.834351,362.726288 591.402466,369.489868 583.495117,376.796967 
	C577.948425,381.922638 578.166138,382.200439 572.312622,377.837494 
	C570.586731,376.551117 568.990234,375.091217 567.333740,373.711670 
	C553.984558,362.594452 540.082947,353.343903 521.181152,360.242065 
	C517.831055,354.037781 517.000122,346.650482 512.612854,340.900543 
	C509.252594,341.235443 508.748138,345.057220 506.021118,345.368439 
M536.769592,245.755493 
	C554.626221,264.996521 572.115112,284.576263 593.019897,300.743469 
	C610.269531,314.083923 627.883301,326.869232 647.204590,337.011292 
	C668.862610,348.379913 691.647278,357.057007 715.254700,363.502319 
	C716.668762,363.888397 718.350769,365.239136 719.868103,363.410706 
	C720.298889,360.819397 718.000305,359.897186 716.584961,358.877899 
	C707.287354,352.182281 697.982117,345.476318 688.397644,339.204193 
	C664.493286,323.561218 640.284302,308.377899 617.315796,291.345367 
	C615.779541,290.206177 614.591919,289.054932 614.672058,286.906128 
	C615.038147,277.087524 614.077332,267.249329 615.063110,257.438629 
	C615.512878,252.963074 612.451782,249.423630 607.805481,249.385239 
	C601.501526,249.333176 595.200073,248.988190 588.925964,250.322922 
	C584.867310,251.186340 583.389282,253.062057 585.026978,256.970734 
	C586.058289,259.432312 585.757935,261.894501 585.634888,264.494049 
	C583.528137,264.125122 582.169617,263.183472 580.972778,262.009613 
	C572.542664,253.741074 564.442932,245.186829 557.347107,235.705490 
	C543.862732,217.687805 526.548401,205.705368 503.954041,202.056808 
	C495.567261,200.702530 494.218903,201.357605 491.889801,209.609375 
	C488.713409,220.862961 484.335144,231.593872 478.397858,241.679977 
	C462.897400,268.011749 441.782288,289.211700 418.040985,308.073944 
	C392.524200,328.346802 364.529388,344.481750 335.220642,358.521301 
	C330.590729,360.739136 325.381012,362.134399 321.527008,366.009338 
	C324.752136,368.962677 326.087555,369.444336 329.809021,368.406677 
	C359.656525,360.084167 388.850739,350.107758 415.820282,334.467163 
	C434.419312,323.680847 452.066711,311.465027 467.835754,296.907867 
	C486.905884,279.303345 503.850525,259.629761 520.346924,239.598297 
	C521.876465,237.740891 523.355591,235.587341 525.728149,235.048477 
	C527.593994,236.797180 529.297607,238.351471 530.952332,239.956161 
	C532.746460,241.696045 534.494995,243.482895 536.769592,245.755493 
M596.810913,212.950562 
	C599.380981,215.087402 602.351807,215.721207 605.653564,215.684174 
	C610.425781,215.630646 614.790100,214.020996 619.191406,212.539215 
	C621.460693,211.775208 623.682922,211.236496 626.006348,212.077454 
	C634.172119,215.032944 639.012390,213.814865 643.734436,207.054428 
	C645.617249,204.358948 647.824585,203.402420 650.909790,203.722198 
	C654.092529,204.052109 653.525208,206.931305 654.950562,208.653320 
	C653.487915,209.405807 652.444336,209.904648 651.437256,210.468735 
	C649.297852,211.667084 647.540100,213.208771 647.855774,215.942230 
	C648.145630,218.452469 650.161316,219.523163 652.207764,220.293121 
	C654.680969,221.223633 657.133423,222.115540 659.945435,221.067764 
	C662.226074,220.217972 663.954285,220.576447 664.398987,223.796951 
	C665.275513,230.144760 670.986450,232.843536 676.575195,229.366058 
	C680.342712,227.021835 683.398499,225.219910 687.374878,228.982376 
	C688.923340,230.447556 691.487549,229.719971 693.620056,229.069138 
	C696.748108,228.114456 699.249268,226.106323 701.459045,223.915085 
	C703.057800,222.329697 704.240601,222.150177 706.165771,223.046402 
	C710.779114,225.194107 717.196777,222.469742 719.299927,217.633286 
	C721.160645,213.354065 719.290894,209.174500 714.158691,206.716629 
	C711.394775,205.392990 708.515808,204.741623 707.547363,200.976334 
	C707.010437,198.888977 704.512329,198.098969 702.065674,199.070633 
	C700.882629,199.540466 699.457703,200.535095 698.384827,199.201965 
	C694.795776,194.742233 691.028931,194.477829 686.195740,197.525116 
	C683.386292,199.296463 681.729309,196.067368 680.404724,194.219162 
	C678.909058,192.132080 680.397644,191.030746 682.545898,190.437454 
	C686.186707,189.431961 686.937012,186.351227 685.422791,183.736526 
	C683.104736,179.733948 684.940613,177.775940 687.841736,175.709290 
	C688.782471,175.039169 689.557373,174.136902 690.411072,173.343979 
	C692.118103,171.758392 692.481812,169.879288 691.154419,167.986298 
	C689.868530,166.152496 688.212280,167.051987 686.699524,167.822861 
	C684.051575,169.172241 681.355591,170.225418 677.800049,169.574921 
	C679.428894,162.663742 680.059021,155.923035 680.383850,148.246750 
	C673.294312,152.942215 672.769714,161.142975 667.345703,166.194763 
	C663.855530,161.873840 660.744873,158.001419 657.606995,154.151154 
	C656.656921,152.985428 655.629272,151.575653 653.894592,152.610092 
	C652.099731,153.680420 653.109741,155.183441 653.604248,156.581635 
	C655.242493,161.213837 657.281067,165.751816 657.418213,170.639145 
	C654.236084,172.639938 650.118286,170.290497 647.731812,173.258957 
	C642.562500,179.688797 635.864990,179.251953 629.317139,177.010010 
	C620.488647,173.987137 612.213318,175.082657 604.252563,179.078506 
	C601.070251,180.675858 598.290771,181.006378 594.871094,180.460892 
	C586.452698,179.118103 579.029480,188.122101 581.561890,196.328018 
	C579.852295,198.347122 576.569153,199.585281 577.859314,203.201126 
	C579.176697,206.893570 582.625916,207.123810 585.671448,207.498734 
	C588.736816,207.876068 591.884888,207.581772 594.734680,207.581772 
	C595.410339,209.633255 595.873169,211.038391 596.810913,212.950562 
M582.543518,171.009552 
	C587.023132,165.920090 588.152771,158.514465 584.605957,154.656830 
	C579.435852,149.033722 575.045349,145.423782 565.270630,152.731476 
	C564.245178,151.699158 563.221985,150.616806 562.143921,149.592133 
	C553.655701,141.524338 548.713928,141.384796 539.948853,149.113251 
	C538.531311,150.363174 537.387695,150.350525 535.974854,149.355194 
	C534.614258,148.396667 533.302246,147.298218 531.807373,146.614502 
	C527.446167,144.619797 523.102173,144.650085 518.971130,147.331512 
	C515.769043,149.409958 513.521301,152.691269 514.618225,156.145981 
	C516.431519,161.857300 513.217590,161.561615 509.662201,161.362183 
	C503.817993,161.034348 498.827698,162.546463 495.145020,167.411972 
	C492.155823,171.361267 492.799896,174.639984 496.835938,177.520340 
	C498.934113,179.017700 501.447968,178.041107 503.463196,179.226425 
	C503.850647,180.602112 503.012390,181.600861 502.305664,182.416519 
	C499.237183,185.957947 500.855957,188.243713 504.002075,190.560623 
	C507.815002,193.368530 511.712341,192.414093 515.281738,190.726196 
	C519.640564,188.664948 522.459717,189.638260 525.598389,193.129730 
	C529.994934,198.020447 534.329956,197.852966 538.816406,193.066162 
	C540.953003,190.786484 542.549011,190.617126 545.177490,192.374207 
	C549.843628,195.493454 553.940918,194.323822 556.903259,189.570602 
	C557.767151,188.184418 557.948364,186.367279 559.517883,185.426422 
	C565.976013,188.203247 569.262878,187.905792 570.139893,183.365417 
	C571.182922,177.964996 574.205933,175.510376 578.819214,173.842651 
	C580.010742,173.411896 580.961121,172.314087 582.543518,171.009552 
M365.888031,248.599335 
	C369.903320,246.589554 367.626831,243.906570 366.601532,241.429840 
	C362.300720,231.040466 364.318665,224.071686 373.245819,218.878571 
	C379.420349,215.286697 385.442017,217.249451 391.392151,219.563477 
	C396.909576,221.709213 397.421875,221.531372 399.656342,215.916595 
	C402.803009,208.009628 406.326477,206.006912 414.765045,205.539490 
	C422.372070,205.118118 428.137146,208.978821 433.846771,212.753555 
	C437.296143,215.034027 439.088257,215.236359 440.358093,211.134476 
	C441.413086,207.726501 443.794739,206.122971 447.174622,205.346649 
	C450.974487,204.473877 454.719269,204.172516 458.438385,205.368088 
	C459.650940,205.757874 460.647736,206.244858 461.452240,204.930618 
	C462.031708,203.983963 461.993195,202.649246 461.226959,202.152176 
	C456.728027,199.233704 453.198181,194.643494 447.163422,194.344452 
	C438.449829,193.912643 433.222107,198.361420 430.310089,206.654739 
	C425.141632,203.372742 420.614838,200.124023 415.610657,197.589142 
	C406.141174,192.792328 394.783508,196.111496 389.709167,205.458221 
	C388.323547,208.010452 388.033905,211.175659 385.602844,213.373596 
	C383.569702,212.324814 381.739197,211.095108 379.724152,210.401413 
	C375.722321,209.023788 372.012970,206.617981 367.319397,207.794846 
	C354.887848,210.911926 346.228271,221.761475 354.461151,235.860184 
	C356.576447,239.482559 355.954437,241.372726 351.631653,241.712311 
	C339.465668,242.668060 331.387177,249.859909 324.727570,259.283752 
	C323.408356,261.150574 322.285736,263.276520 323.361389,265.213684 
	C324.664032,267.559540 327.086670,266.584930 329.192352,265.908661 
	C341.954224,261.810028 353.475281,255.080719 365.888031,248.599335 
M405.138275,373.759583 
	C414.998505,367.801422 414.997681,367.802399 406.164764,360.470062 
	C405.655243,360.047089 405.215668,359.530884 404.676331,359.154358 
	C402.056030,357.324982 399.836823,356.553711 399.225037,360.989838 
	C398.910370,363.271362 398.236542,365.501709 397.765076,367.763550 
	C396.579346,373.452057 398.582458,375.335754 405.138275,373.759583 
M517.453491,270.613525 
	C517.816345,269.535919 518.265991,268.455048 517.217102,267.260864 
	C515.256958,267.528961 513.169617,268.036621 513.749207,270.623566 
	C514.160828,272.460541 515.745789,272.522125 517.453491,270.613525 
z"/>
<path fill="#000000" opacity="1.000000" stroke="none" 
	d="
M696.089539,424.109619 
	C697.882935,434.897949 693.504822,439.380005 683.174561,437.806244 
	C672.115051,436.121307 661.409851,432.966858 650.688782,429.901001 
	C645.863098,428.521027 640.982239,427.543488 635.982056,427.258759 
	C634.227844,427.158844 632.251282,426.732758 630.826416,428.815765 
	C631.334839,431.736389 633.680359,432.419617 636.190613,432.855103 
	C649.480469,435.160675 662.594666,438.144623 675.315613,442.720459 
	C679.564270,444.248718 683.735107,445.901672 687.403198,448.587616 
	C694.721619,453.946564 697.313293,461.109711 695.924988,470.033508 
	C694.681641,478.025330 689.304016,482.033966 682.498474,484.721405 
	C673.577881,488.244110 664.022217,488.757416 654.669617,490.074768 
	C640.853027,492.020935 627.096497,489.712158 613.331726,488.796082 
	C611.034119,488.643188 608.686646,488.119202 606.520081,487.332062 
	C600.666870,485.205505 597.656799,481.212585 597.295715,474.649597 
	C596.987976,469.055298 599.809631,465.925323 603.757324,463.171387 
	C609.945618,458.854492 616.554871,458.870758 623.240723,461.815918 
	C632.798767,466.026306 642.566895,469.142944 653.198364,468.046997 
	C655.332397,467.826996 658.835876,469.032806 659.068176,466.016510 
	C659.313049,462.836639 655.564453,462.930237 653.315918,462.566040 
	C644.932678,461.208313 636.539673,459.979767 628.466187,457.202667 
	C621.499023,454.806122 614.828064,451.814728 608.924255,447.336731 
	C603.749878,443.412079 599.740479,438.535950 598.102539,432.155273 
	C595.561096,422.254639 599.242310,414.307495 608.324829,409.675873 
	C621.002258,403.211060 634.447815,401.820679 648.160095,404.846130 
	C660.801941,407.635406 673.830139,409.001648 685.888672,414.129333 
	C690.388489,416.042816 694.605103,418.450775 696.089539,424.109619 
M690.313599,431.046356 
	C691.840271,429.188995 692.163574,432.754059 693.500122,431.753510 
	C696.453491,420.801819 688.514465,416.057617 676.328247,415.186249 
	C682.453491,416.849487 681.445984,420.476288 680.148071,424.602539 
	C679.402039,426.974182 678.556152,430.023651 681.540344,431.825409 
	C684.321838,433.504761 687.196960,433.604370 690.313599,431.046356 
M606.844543,420.666321 
	C608.965515,416.952545 612.982300,415.029266 616.058899,411.492645 
	C603.282776,413.618866 597.865845,424.029907 604.443665,433.499420 
	C605.174561,429.247314 603.880493,424.918945 606.844543,420.666321 
M689.901306,456.441498 
	C694.674194,465.828461 689.216797,472.946991 683.454224,481.055634 
	C694.221741,473.678192 696.366028,461.682678 688.870422,453.595154 
	C689.238647,454.727936 689.428467,455.311768 689.901306,456.441498 
M601.571960,469.165283 
	C598.482361,473.476196 598.777649,477.579346 602.501587,481.667023 
	C599.866638,472.601562 604.494812,467.506561 612.062988,463.876953 
	C607.759460,463.866760 604.517090,465.477570 601.571960,469.165283 
z"/>
<path fill="#000000" opacity="1.000000" stroke="none" 
	d="
M388.033203,436.026733 
	C389.058044,433.271759 393.336426,432.228577 392.340942,428.254517 
	C389.698273,427.461365 388.639709,429.650391 387.054993,430.600098 
	C383.079529,432.982697 379.467133,432.768555 376.254578,429.299286 
	C372.929596,425.708679 371.332825,421.047424 369.381073,416.763336 
	C367.408569,412.433716 370.357697,406.424805 374.582245,403.859070 
	C379.480408,400.884094 384.935181,399.385864 390.487610,398.197693 
	C409.551392,394.118225 428.276001,388.911835 446.276764,381.321960 
	C449.893188,379.797150 453.694122,379.519745 457.536804,379.503448 
	C460.481537,379.490936 463.273102,380.270508 465.228119,382.510681 
	C469.866364,387.825470 472.610687,394.383698 472.676117,401.139923 
	C472.722107,405.891541 468.829071,410.251434 465.950623,414.219025 
	C463.878571,417.075165 460.006958,415.012634 456.942749,415.129120 
	C455.965485,415.166260 454.976898,414.811646 453.988708,414.669800 
	C444.736969,413.342041 439.603271,419.227783 443.108765,427.900391 
	C446.344666,435.906036 450.592834,443.499390 454.311005,451.314331 
	C456.811096,456.569031 459.244904,461.797180 459.441650,467.858856 
	C459.651306,474.318726 456.888824,478.693939 451.313538,481.523743 
	C443.615540,485.431000 435.486511,487.474792 426.800385,487.397552 
	C423.287354,487.366272 420.802307,486.050964 418.867828,483.162659 
	C415.202179,477.689575 414.054901,471.518433 413.765961,465.148926 
	C413.343506,455.836212 413.117371,446.514343 412.834747,437.195587 
	C412.708588,433.036407 412.090057,429.051910 407.760376,427.147736 
	C403.587097,425.312378 400.491394,427.943512 397.307098,430.095856 
	C394.439911,432.033875 392.318268,435.085510 388.350189,435.947815 
	C388.007202,436.002289 388.033203,436.026733 388.033203,436.026733 
M450.622437,457.005280 
	C453.854431,463.828827 453.584778,470.578735 449.138916,477.365479 
	C453.944672,476.900085 457.052155,471.925934 456.507507,466.966492 
	C455.554169,458.285583 451.104675,451.086853 446.438843,443.974121 
	C447.751556,448.062988 449.064240,452.151886 450.622437,457.005280 
M453.463593,386.942078 
	C460.805420,387.400024 463.596313,393.502838 467.461914,399.174713 
	C467.649567,391.228363 463.577789,385.461517 457.270782,383.780548 
	C452.912415,382.618958 449.640778,383.754272 447.861877,387.119873 
	C449.518311,388.098907 451.089752,386.910828 453.463593,386.942078 
z"/>
<path fill="#000000" opacity="1.000000" stroke="none" 
	d="
M593.886353,447.154175 
	C593.114502,443.362335 591.416504,440.213837 591.298645,435.487366 
	C595.918030,442.095123 598.665771,448.337677 598.659119,455.344147 
	C598.655884,458.771881 595.742126,461.014771 592.385376,461.580841 
	C583.487183,463.081421 574.556396,463.883698 565.623596,461.578613 
	C556.334229,459.181519 553.884644,455.328217 556.186401,445.879272 
	C557.641846,439.904633 559.629883,434.057800 561.030090,428.072052 
	C563.350403,418.152374 560.278748,411.367676 551.356079,406.291138 
	C545.680603,403.062012 539.457397,401.077057 533.294067,399.072754 
	C515.311768,393.224976 518.575684,377.399780 525.292419,367.178589 
	C527.466553,363.870056 531.253357,363.814728 534.811035,364.200043 
	C543.010193,365.087982 550.133484,368.566589 556.468323,373.703430 
	C562.031433,378.214539 567.628906,382.700684 572.942627,387.495544 
	C576.282532,390.509308 579.013550,390.095123 582.087402,387.346191 
	C588.294861,381.795013 594.430359,376.140930 601.260010,371.344543 
	C607.606018,366.887848 614.267151,363.176605 622.453247,363.812775 
	C624.581421,363.978180 626.658447,364.171753 628.419006,367.589661 
	C621.707092,366.267975 615.762817,364.745209 610.517822,369.250610 
	C614.068542,369.658508 617.504028,370.053162 621.138245,370.470642 
	C620.100342,372.566223 618.836975,371.429199 617.840454,371.626343 
	C614.286499,372.329407 612.266174,374.396698 612.448486,378.154877 
	C612.512451,379.474365 613.415466,380.953979 613.043762,382.061096 
	C610.668945,389.134644 615.369385,390.403046 620.456360,391.687561 
	C622.825195,392.285767 625.058594,393.420380 627.667480,394.433868 
	C626.163696,397.433228 623.481079,397.589020 621.267334,398.182129 
	C614.801392,399.914703 608.539429,402.070770 602.729736,405.463440 
	C595.174500,409.875458 591.383789,416.439331 591.194641,425.150330 
	C591.141907,427.577057 591.687012,430.187683 588.026550,430.870178 
	C586.210815,431.208771 586.314392,433.037689 586.844055,434.610687 
	C587.959045,437.921844 589.106934,441.223633 590.133362,444.562439 
	C592.431091,452.036591 591.683838,454.412048 585.696289,459.178864 
	C592.124207,460.862579 595.619202,457.928284 594.824280,451.460907 
	C594.662720,450.145996 594.267639,448.859741 593.886353,447.154175 
M525.362488,372.001495 
	C523.463074,375.425812 522.786133,379.058289 523.611084,384.184753 
	C526.172180,376.449982 528.670044,369.794586 538.383484,370.499390 
	C533.800354,366.118439 530.828796,366.598969 525.362488,372.001495 
z"/>
<path fill="#000000" opacity="1.000000" stroke="none" 
	d="
M497.430603,462.474304 
	C495.888062,456.296478 493.819489,455.558350 489.243591,459.005615 
	C483.873810,463.050934 477.480865,462.055328 471.417908,462.104523 
	C469.289307,462.121826 468.786194,459.452454 468.125519,457.539032 
	C466.300720,452.254211 467.381256,446.939087 468.089294,441.705688 
	C469.538849,430.991608 468.578552,419.773254 475.295105,410.148956 
	C482.034790,400.491516 489.564301,392.402649 502.560181,392.808746 
	C506.558655,392.933655 510.201508,392.980499 509.011444,399.251251 
	C508.237549,403.329193 511.190277,407.277466 514.924805,408.919647 
	C519.330139,410.856689 519.991760,406.271667 521.502502,403.605042 
	C541.568542,406.337646 557.732300,420.957733 552.146240,432.944702 
	C549.569641,424.048676 546.442261,416.319092 537.671692,411.338379 
	C539.796387,413.914246 541.394897,415.642517 542.758118,417.539825 
	C550.082703,427.733826 551.937866,438.721497 547.458313,450.622040 
	C546.718933,452.586365 545.710632,454.546295 547.785278,456.579865 
	C549.088257,457.856934 548.007263,459.484467 547.180054,460.684479 
	C539.000244,472.551056 528.164612,481.524841 515.988403,488.984619 
	C513.447876,490.541107 511.613770,489.823212 509.752380,487.222473 
	C506.140930,482.176483 503.502441,477.453766 508.037506,471.511017 
	C509.329376,469.818176 509.450226,467.363739 507.648102,465.498779 
	C505.691071,463.473541 503.665985,464.610474 501.686859,465.512238 
	C500.232330,466.174988 499.048767,467.709747 497.134186,466.887695 
	C495.674652,465.452576 496.797272,464.136963 497.430603,462.474304 
M492.559113,443.771362 
	C494.274536,451.620148 501.784332,454.207672 506.657013,459.179047 
	C507.700745,460.243958 509.455658,460.004456 510.976410,459.751892 
	C516.551941,458.825714 529.337830,444.679321 529.632019,439.020782 
	C529.674072,438.211334 529.530151,437.344025 529.265015,436.574982 
	C527.963074,432.799042 526.544556,429.060669 524.104004,425.838226 
	C518.317505,418.198029 509.923676,415.347198 503.301239,418.728241 
	C494.547791,423.197266 489.919403,433.440918 492.559113,443.771362 
M500.720673,417.067657 
	C502.394257,416.541107 504.067841,416.014526 506.805786,415.153107 
	C495.502991,414.946442 488.258545,421.959412 488.980316,433.534119 
	C490.326813,425.441467 493.331360,419.994080 500.720673,417.067657 
z"/>
<path fill="#000000" opacity="1.000000" stroke="none" 
	d="
M459.412567,491.015747 
	C458.536560,489.374207 457.759460,488.121277 456.895172,486.727722 
	C459.886658,484.178833 462.851807,481.778687 464.265015,477.351440 
	C470.179749,483.057739 476.161652,487.699860 482.846222,491.743042 
	C487.288177,494.429810 489.470062,501.051239 495.823181,503.320496 
	C490.076202,505.911743 486.793427,510.529694 483.282806,516.032593 
	C478.747589,505.789368 470.440643,504.611420 461.570129,505.410950 
	C459.297821,500.700714 459.795776,495.998291 459.412567,491.015747 
z"/>
<path fill="#000000" opacity="1.000000" stroke="none" 
	d="
M510.708008,527.990601 
	C509.337982,528.049561 508.228638,528.266113 507.401886,527.879150 
	C504.165802,526.364197 500.415710,525.287109 499.793640,520.917419 
	C499.548462,519.195312 499.830383,517.304443 501.353027,516.473938 
	C505.060059,514.452026 508.838654,516.211609 512.367249,517.211182 
	C514.906433,517.930481 514.504272,520.665039 513.863892,522.772644 
	C513.300354,524.627258 512.956970,526.684570 510.708008,527.990601 
z"/>
<path fill="#000000" opacity="1.000000" stroke="none" 
	d="
M455.977051,438.794006 
	C453.689087,433.507599 450.574738,428.990509 448.873779,423.392334 
	C453.165527,422.144745 457.177429,422.659058 461.548218,422.953339 
	C461.664856,429.550171 458.656952,435.537476 459.307556,442.000153 
	C456.905182,442.047729 456.942017,440.172394 455.977051,438.794006 
z"/>
<path fill="#000000" opacity="1.000000" stroke="none" 
	d="
M626.181885,385.104797 
	C628.351501,384.917419 630.504028,383.294128 631.810059,384.683716 
	C634.021118,387.036377 636.015442,389.814697 637.261963,392.768158 
	C638.003113,394.523987 636.025330,395.980499 634.141479,395.057739 
	C631.802551,393.912048 630.013794,391.849030 627.357239,391.025787 
	C625.072693,390.317780 622.317017,390.489380 620.499146,387.983246 
	C621.466003,385.572968 623.879333,385.791656 626.181885,385.104797 
z"/>
<path fill="#000000" opacity="1.000000" stroke="none" 
	d="
M387.996826,435.988037 
	C383.309601,441.192627 379.080444,441.370605 374.594177,436.331451 
	C371.683136,433.061615 369.563873,429.381134 370.536865,424.293152 
	C374.043121,431.371735 376.801880,439.440338 387.640289,436.095337 
	C388.033203,436.026733 388.007202,436.002289 387.996826,435.988037 
z"/>
<path fill="#000000" opacity="1.000000" stroke="none" 
	d="
M520.251465,435.333130 
	C520.570740,438.648285 519.726990,441.319855 518.427246,443.828918 
	C516.728699,447.107727 513.795288,449.278931 510.315796,449.620148 
	C506.935852,449.951569 501.240997,444.771667 500.810303,441.419922 
	C500.411072,438.313080 498.123993,435.061066 500.919464,431.984833 
	C503.161499,429.517639 504.487091,425.544617 508.760315,426.089691 
	C514.180054,426.780975 518.387268,429.391052 520.251465,435.333130 
z"/>
</svg>